<?xml version="1.0" encoding="utf-8"?>
<!-- Generator: Adobe Illustrator 24.1.1, SVG Export Plug-In . SVG Version: 6.00 Build 0)  -->
<svg version="1.1" id="Layer_1" xmlns="http://www.w3.org/2000/svg" xmlns:xlink="http://www.w3.org/1999/xlink" x="0px" y="0px"
	 viewBox="0 0 29 27" style="enable-background:new 0 0 29 27;" xml:space="preserve">
<style type="text/css">
	.st0{fill:none;stroke:#525252;stroke-width:1.8;stroke-linecap:round;stroke-linejoin:round;}
	.st1{fill:#525252;}
</style>
<g>
	<path class="st0" d="M23.9,19.91c0,0.01,0,1.3,0,1.31c-0.08,1.63-1.38,2.78-3,2.74H8.1c-1.66,0-3-1.24-3-2.76v-7.3
		c0-1.53,1.34-2.76,3-2.76h12.8c1.66,0,3,1.24,3,2.76v1.26"/>
	<path class="st0" d="M10.12,10.19V8.02c0-2.75,2.23-4.97,4.97-4.97h0c2.75,0,4.97,2.23,4.97,4.97v2.44"/>
	<circle class="st1" cx="10.8" cy="17.1" r="0.97"/>
	<circle class="st1" cx="14.5" cy="17.1" r="0.97"/>
	<circle class="st1" cx="18.2" cy="17.1" r="0.97"/>
</g>
</svg>
